PathFileType	4	(X/Y/Z)	./resultDataOpenSim/trcMotMarkerGrf/sub06/qtm-05-02.trc
DataRate	CameraRate	NumFrames	NumMarkers	Units	OrigDataRate	OrigDataStartFrame	OrigNumFrames
250.000000	250.000000	12	24	m	250.000000	1	545
Frame#	Time	L.Toe.Tip			R.Toe.Tip			L.Ankle.Lat			R.Ankle.Lat			L.Ankle.Med			R.Ankle.Med			L.Heel			R.Heel			L.Knee.Lat			R.Knee.Lat			L.Knee.Med			R.Knee.Med			L.Thigh.Upper			R.Thigh.Upper			L.ASIS			R.ASIS			V.Sacral			L.Acromium			R.Acromium			C7			L.Elbow			R.Elbow			L.Wrist.Lat			R.Wrist.Lat
		X1	Y1	Z1	X2	Y2	Z2	X3	Y3	Z3	X4	Y4	Z4	X5	Y5	Z5	X6	Y6	Z6	X7	Y7	Z7	X8	Y8	Z8	X9	Y9	Z9	X10	Y10	Z10	X11	Y11	Z11	X12	Y12	Z12	X13	Y13	Z13	X14	Y14	Z14	X15	Y15	Z15	X16	Y16	Z16	X17	Y17	Z17	X18	Y18	Z18	X19	Y19	Z19	X20	Y20	Z20	X21	Y21	Z21	X22	Y22	Z22	X23	Y23	Z23	X24	Y24	Z24

1	0	-1.5958167	0.032632851	-0.074860154	-1.038477	0.09296942	0.14130572	-1.717527	0.069314267	-0.085279963	-1.1680401	0.078317551	0.14519225	-1.7078957	0.080303059	-0.00059658579	-1.1507986	0.10811396	0.062619033	NaN	NaN	NaN	-1.204518	0.040165506	0.070387603	-1.5721677	0.41113698	-0.10175356	-1.2564491	0.45788217	0.15885641	-1.5859947	0.41111907	0.018837704	-1.2688359	0.43603564	0.030327732	-1.4783777	0.78694354	-0.16194856	-1.4465621	0.78103624	0.18961784	-1.3936592	0.82641844	-0.12381417	-1.3682887	0.83459022	0.12091676	-1.5624683	0.90848547	0.026487653	-1.4171781	1.3134303	-0.17981949	-1.4247311	1.3010223	0.18284665	-1.4951547	1.3472921	-0.00021787574	-1.4412591	0.99369185	-0.24878158	-1.5473959	1.0100311	0.23892159	-1.2491085	0.83626868	-0.24101436	-1.4432256	0.79500266	0.28171535
2	0.004	-1.5954094	0.032675477	-0.075272362	-1.0241605	0.096852293	0.14203222	-1.7173876	0.069529355	-0.085169319	-1.1533994	0.079142251	0.14633301	-1.7071996	0.080436221	-0.00046473904	-1.1368769	0.10926846	0.0636333	NaN	NaN	NaN	-1.1891897	0.04004031	0.071745535	-1.5690072	0.41009645	-0.10164921	-1.2503934	0.45629327	0.15866429	-1.5809999	0.41009705	0.018601237	-1.2627478	0.43412239	0.029817807	-1.473711	0.78543058	-0.16170385	-1.4429032	0.7787968	0.18898794	-1.388533	0.82465125	-0.12398483	-1.3624512	0.83276273	0.12088714	-1.5561401	0.90675615	0.027130951	-1.4117169	1.3117433	-0.17956139	-1.4197516	1.2991031	0.1832854	-1.4897846	1.3456437	0.00022668565	-1.4346481	0.99176297	-0.24923866	-1.5423747	1.0080208	0.23904402	-1.2413846	0.83557808	-0.24014561	-1.4389912	0.79298894	0.282162
3	0.008	-1.5949477	0.032737651	-0.075751761	-1.0099573	0.10088052	0.14255493	-1.7172431	0.069760091	-0.085050628	-1.1389702	0.080049698	0.14747186	-1.7066838	0.080564403	-0.00031746188	-1.1231772	0.11045384	0.064601438	NaN	NaN	NaN	-1.1740884	0.039950334	0.073117318	-1.5657976	0.4090599	-0.10155411	-1.2444218	0.45471292	0.15843311	-1.5765378	0.40904826	0.018478002	-1.2566426	0.43224382	0.029322438	-1.4690064	0.78391507	-0.16143692	-1.4387959	0.77658564	0.18851149	-1.3834057	0.8228944	-0.12411797	-1.3565329	0.83092276	0.12085418	-1.5491944	0.90493411	0.027692982	-1.4062371	1.3100385	-0.17925129	-1.414772	1.2972274	0.1837324	-1.4844642	1.344002	0.00068311453	-1.4279121	0.98986628	-0.24940076	-1.5373414	1.0060216	0.23922407	-1.2336821	0.83486987	-0.23927169	-1.4346447	0.79100987	0.28259934
4	0.012	-1.5945336	0.032803825	-0.076190417	-0.99594154	0.10512642	0.14278178	-1.7170691	0.070016651	-0.084919273	-1.1248736	0.08108036	0.14857675	-1.7064376	0.080696478	-0.00015444805	-1.1098662	0.11166979	0.065479643	NaN	NaN	NaN	-1.1593165	0.03992669	0.074489742	-1.5625252	0.40802959	-0.10146003	-1.2385169	0.45314776	0.15816579	-1.5725949	0.40796763	0.018490487	-1.250498	0.43043595	0.028840983	-1.464244	0.78238563	-0.16111251	-1.4336458	0.7744766	0.18838993	-1.3782685	0.82115459	-0.12420341	-1.3505089	0.82906874	0.12081434	-1.5417777	0.90306554	0.0281869	-1.4007234	1.3083236	-0.17888866	-1.4097827	1.2954094	0.18419801	-1.4791584	1.3423682	0.001147551	-1.4210197	0.98799789	-0.24924237	-1.5322812	1.0040396	0.23949389	-1.2260108	0.83413115	-0.23839418	-1.4301612	0.78906845	0.28302812
5	0.016	-1.5943709	0.03284124	-0.076378199	-0.98228332	0.10947649	0.14281289	-1.7168238	0.070308513	-0.084775462	-1.1111701	0.082216803	0.14960009	-1.7063697	0.080861281	1.2247473e-05	-1.0970186	0.11289503	0.066237079	NaN	NaN	NaN	-1.1449107	0.039981912	0.075814234	-1.559195	0.40701562	-0.10136747	-1.2325745	0.45161557	0.15791786	-1.5688196	0.40686077	0.018581782	-1.2443045	0.42871735	0.028369392	-1.4594406	0.78083526	-0.16072191	-1.4274425	0.77250722	0.18859419	-1.3731173	0.81942815	-0.12425607	-1.3444012	0.82720738	0.12076239	-1.5346198	0.90129449	0.028695014	-1.39517	1.3066264	-0.17849687	-1.404762	1.2936362	0.18468589	-1.4737803	1.3407428	0.0016246969	-1.4140449	0.98613689	-0.24898583	-1.5271925	1.0020811	0.23985573	-1.218389	0.83336154	-0.23751887	-1.4255904	0.78715399	0.28346217
6	0.02	-1.5945128	0.032839593	-0.076266877	-0.96922156	0.11367847	0.14286202	-1.7164789	0.070652518	-0.084620376	-1.0978977	0.083402775	0.15050024	-1.7062446	0.081103122	0.00016918244	-1.0846226	0.11410348	0.066865464	NaN	NaN	NaN	-1.1309268	0.040101126	0.077019506	-1.555798	0.40602908	-0.10128877	-1.2264901	0.45014132	0.15775455	-1.5649446	0.40573868	0.018682256	-1.2380565	0.42707084	0.027918883	-1.4546284	0.7792677	-0.16031377	-1.4208896	0.77061813	0.18883631	-1.3679462	0.81770451	-0.1242982	-1.3382264	0.82534925	0.12069557	-1.5281602	0.89968469	0.029238092	-1.3895608	1.3049677	-0.17807954	-1.3996706	1.2918832	0.1851923	-1.4682818	1.3391233	0.0021125723	-1.4070964	0.98428144	-0.2488975	-1.5220757	1.0001509	0.24029653	-1.2108245	0.8325675	-0.23664889	-1.4209603	0.78526648	0.28391954
7	0.024	-1.5947716	0.032813846	-0.076041744	-0.95687881	0.11753468	0.14304442	-1.7160445	0.071069049	-0.08445477	-1.0851107	0.084565017	0.15124314	-1.7058681	0.081460616	0.00030944984	-1.0726646	0.11526452	0.067372513	NaN	NaN	NaN	-1.1174633	0.040257771	0.078033535	-1.5523217	0.40507223	-0.1012251	-1.2202282	0.44874251	0.15770321	-1.5608756	0.40462793	0.018745343	-1.2317486	0.42546887	0.027513531	-1.4498335	0.77768526	-0.15994876	-1.4145885	0.76873252	0.18890199	-1.3627469	0.81597959	-0.12434626	-1.3319834	0.82350432	0.1206135	-1.5222579	0.89817743	0.029742762	-1.3838786	1.3033491	-0.17763337	-1.3944852	1.290138	0.18571442	-1.4626885	1.3375073	0.0025825665	-1.4002365	0.98245621	-0.24902937	-1.5169291	0.99825251	0.24080048	-1.2033106	0.83174999	-0.23578412	-1.4162104	0.7834245	0.28440998
8	0.028	-1.5949434	0.032781161	-0.075892862	-0.94520304	0.12098834	0.14329929	-1.7155577	0.07157018	-0.084283573	-1.0728584	0.08563015	0.15181126	-1.7052017	0.08194238	0.0004313426	-1.0611483	0.11635048	0.067771527	NaN	NaN	NaN	-1.1045891	0.040438057	0.07880773	-1.5487566	0.40414237	-0.10116563	-1.213802	0.4474222	0.15775775	-1.5566178	0.40354861	0.018761469	-1.2253697	0.42390194	0.027172396	-1.4450606	0.77608134	-0.15963833	-1.4085732	0.76683072	0.18880781	-1.3575117	0.81425626	-0.12441027	-1.3256606	0.82167558	0.12051171	-1.5165898	0.89669454	0.030142498	-1.3781175	1.3017594	-0.1771668	-1.3892129	1.2884113	0.18625437	-1.457041	1.3358994	0.0030225733	-1.393429	0.98068486	-0.24913527	-1.5117494	0.99638917	0.24135383	-1.1958424	0.83090381	-0.23492182	-1.4111822	0.78165945	0.28494441
9	0.032	-1.594986	0.032750304	-0.075855733	-0.93409041	0.1240474	0.14349775	-1.7150573	0.072152191	-0.084117733	-1.0611593	0.086540817	0.1522078	-1.7042995	0.082520743	0.00052867308	-1.0500752	0.11733781	0.068074213	NaN	NaN	NaN	-1.0923138	0.040637182	0.079334948	-1.5450936	0.40323648	-0.10109569	-1.2072161	0.44617765	0.15790736	-1.5522516	0.40249465	0.018762349	-1.2189014	0.42237286	0.026904877	-1.4402889	0.77446303	-0.15936233	-1.4024789	0.76495498	0.18871096	-1.3522422	0.81254489	-0.12449952	-1.3192511	0.81986452	0.12038232	-1.510938	0.89519902	0.030451583	-1.3722803	1.3001888	-0.17668412	-1.3838737	1.2867252	0.18681617	-1.4513499	1.3343162	0.0034678665	-1.3865929	0.9789714	-0.24891817	-1.5065327	0.99456418	0.24194484	-1.1884243	0.83002676	-0.23406068	-1.4057351	0.77999636	0.28554155
10	0.036	-1.5949555	0.032723241	-0.075878092	-0.92347382	0.12670715	0.14355792	-1.7145711	0.072802377	-0.083966236	-1.050006	0.087265394	0.15244896	-1.7032436	0.083153472	0.00058825212	-1.039449	0.11819864	0.068286445	NaN	NaN	NaN	-1.0806329	0.040837566	0.079665486	-1.5413301	0.4023522	-0.10100202	-1.2004529	0.44500858	0.15813792	-1.547886	0.40145241	0.018795686	-1.2123227	0.42088789	0.026721254	-1.4354899	0.77286213	-0.15913303	-1.3957779	0.76320307	0.18880223	-1.346951	0.81086694	-0.12461588	-1.3127654	0.81807326	0.12022139	-1.5051861	0.89369839	0.030774693	-1.3663719	1.2986345	-0.17617903	-1.3784772	1.285094	0.18740026	-1.4456037	1.3327797	0.0039659101	-1.3796977	0.97730669	-0.24832529	-1.5012747	0.99278094	0.24256264	-1.1810601	0.82911914	-0.23320448	-1.3999573	0.77842012	0.28619376
11	0.04	-1.5949048	0.032697673	-0.075913999	-0.91331995	0.12892324	0.14349492	-1.714107	0.073518392	-0.083829447	-1.0393771	0.087794095	0.15256044	-1.7021741	0.083822766	0.00060232878	-1.0292859	0.11890233	0.068410654	NaN	NaN	NaN	-1.0695597	0.041006149	0.079885842	-1.5374786	0.40149301	-0.10087923	-1.1935133	0.44391414	0.15842074	-1.5435477	0.40042215	0.018883749	-1.2056168	0.41946625	0.026634348	-1.4306516	0.77130598	-0.15898896	-1.3880664	0.76167439	0.18920116	-1.3416405	0.80924903	-0.12474234	-1.3062262	0.81630696	0.12003266	-1.4992355	0.8922541	0.031315232	-1.3603959	1.2970997	-0.17565178	-1.3730119	1.2835177	0.18800268	-1.4397931	1.3313045	0.0045274758	-1.3727914	0.97568058	-0.24760194	-1.4959716	0.99104291	0.24319648	-1.1737466	0.82818055	-0.23236078	-1.3941611	0.77687517	0.28684871
12	0.044	-1.5948596	0.032670733	-0.075945512	-0.90360777	0.13062802	0.14338122	-1.7136443	0.074316529	-0.083706483	-1.0292505	0.088128172	0.1525744	-1.7012596	0.084548609	0.00059033845	-1.0196079	0.11942601	0.068449251	NaN	NaN	NaN	-1.0591177	0.041103415	0.080054723	-1.5335631	0.40066781	-0.10073006	-1.1864316	0.44289131	0.15872214	-1.5391594	0.39941593	0.01900306	-1.1987766	0.4181454	0.026644406	-1.4257664	0.76979488	-0.15889837	-1.3795307	0.76036019	0.18984102	-1.3362931	0.80770986	-0.1248499	-1.2996444	0.81457884	0.11982314	-1.4929542	0.89097861	0.032375254	-1.3543522	1.2955932	-0.17510453	-1.3674503	1.2819863	0.18862143	-1.4339195	1.3298871	0.0051286117	-1.3659351	0.9740925	-0.24701989	-1.4906195	0.98935358	0.2438356	-1.1664808	0.82721551	-0.23153565	-1.3885828	0.77532232	0.2874594
